<svg width="17" height="16" viewBox="0 0 17 16" fill="none" xmlns="http://www.w3.org/2000/svg">
    <path
        d="M8.38807 10.049C12.1055 10.049 15.2656 12.4378 16.4216 15.7611L16.5007 16H0.275391C1.36042 12.5529 4.58212 10.049 8.38807 10.049ZM13.1705 0V4.78247C13.1705 7.41993 11.0339 9.56494 8.38807 9.56494C5.74227 9.56494 3.60559 7.42827 3.60559 4.78247C3.60559 2.28691 5.51691 0.233699 7.95405 0.0166929L8.17941 0H13.1705ZM10.164 6.35054C9.98145 6.16041 9.67936 6.15425 9.48923 6.33677C9.03942 6.76858 8.66672 6.96736 8.38807 6.96736C8.10941 6.96736 7.73671 6.76858 7.2869 6.33677C7.09678 6.15425 6.79468 6.16041 6.61216 6.35054C6.42964 6.54067 6.4358 6.84276 6.62593 7.02528C7.23661 7.61154 7.81833 7.92179 8.38807 7.92179C8.9578 7.92179 9.53952 7.61154 10.1502 7.02528C10.3403 6.84276 10.3465 6.54067 10.164 6.35054Z"
        fill="#FF0083" />
</svg>
    