<svg width="80" height="81" viewBox="0 0 80 81" fill="none" xmlns="http://www.w3.org/2000/svg">
    <path fill-rule="evenodd" clip-rule="evenodd"
        d="M40 0.5C17.9086 0.5 0 18.4086 0 40.5C0 62.5914 17.9086 80.5 40 80.5C62.0914 80.5 80 62.5914 80 40.5C80 18.4086 62.0914 0.5 40 0.5ZM23.4142 30.9142C22.6332 30.1332 22.6332 28.8668 23.4142 28.0858L27.6569 23.8431C28.4379 23.0621 29.7042 23.0621 30.4853 23.8431L40.5 33.8579L50.5147 23.8431C51.2958 23.0621 52.5621 23.0621 53.3431 23.8431L57.5858 28.0858C58.3668 28.8668 58.3668 30.1332 57.5858 30.9142L47.5711 40.9289L57.3553 50.7132C58.1364 51.4943 58.1364 52.7606 57.3553 53.5416L53.1127 57.7843C52.3316 58.5653 51.0653 58.5653 50.2843 57.7843L40.5 48L30.7157 57.7843C29.9347 58.5653 28.6684 58.5653 27.8873 57.7843L23.6447 53.5416C22.8636 52.7606 22.8636 51.4943 23.6447 50.7132L33.4289 40.9289L23.4142 30.9142Z"
        fill="#FF2D20" />
</svg>
    