<svg width="109" height="22" viewBox="0 0 109 22" fill="none" xmlns="http://www.w3.org/2000/svg">
    <path fill-rule="evenodd" clip-rule="evenodd"
        d="M69.5399 1.9624C65.2301 1.9624 61.7402 5.48303 61.7402 9.82102C61.7402 9.92591 61.7423 10.0303 61.7463 10.1343C61.7423 10.2334 61.7402 10.3331 61.7402 10.4333C61.7402 14.4801 65.0584 17.7271 69.7052 17.7271C74.015 17.7271 77.5049 14.2064 77.5049 9.86843C77.5049 9.76354 77.5028 9.65912 77.4988 9.5552C77.5028 9.45602 77.5049 9.35632 77.5049 9.25615C77.5049 5.20936 74.1867 1.9624 69.5399 1.9624ZM64.6298 8.56636C64.3141 9.12068 64.2408 9.69603 64.2408 10.2555C64.2408 13.6927 67.1808 16.463 70.5746 16.463C71.3077 16.463 72.0091 16.3339 72.6918 16.0992L72.6918 16.0993L72.6976 16.0971C73.6544 15.746 74.5179 15.2036 75.2404 14.5167C73.9186 16.1146 71.929 17.1309 69.7052 17.1309C65.3493 17.1309 62.3363 14.1137 62.3363 10.4333V10.4305L62.3481 10.4314C62.562 9.49025 62.9553 8.61801 63.4897 7.85332L63.4898 7.85328C63.5314 7.79376 63.5738 7.73488 63.6171 7.67667C64.7363 6.17079 66.4132 5.10763 68.3366 4.81334L68.3367 4.81333C68.7006 4.75767 69.0732 4.72952 69.4526 4.73108L69.4528 4.73108C70.0522 4.73306 70.4716 4.78967 70.8834 4.87233C72.3062 5.23614 73.4639 6.27309 74.0025 7.62814C73.0743 6.12215 71.3769 5.13832 69.4897 5.13832C67.2537 5.13832 65.3514 6.5675 64.6298 8.56636ZM74.0434 10.9515C73.3957 12.7065 71.719 13.955 69.7555 13.955C67.2178 13.955 65.0956 11.9657 65.0956 9.42996C65.0956 9.21257 65.1102 9.01578 65.2125 8.74321L65.2018 8.73792C65.8494 6.98299 67.5261 5.73443 69.4897 5.73443C72.0273 5.73443 74.1496 7.72379 74.1496 10.2595C74.1496 10.4769 74.1349 10.6737 74.0326 10.9462L74.0434 10.9515ZM0 16.1479V3.5376H4.29816C5.45854 3.5376 6.37619 3.85434 7.05111 4.48781C7.72603 5.12129 8.06349 5.96493 8.06349 7.01875C8.06349 7.94232 7.78819 8.70012 7.2376 9.29216C6.68701 9.88419 5.92033 10.2513 4.93755 10.3933L9.80406 16.1479H7.72603L2.87728 10.4111H1.65177V16.1479H0ZM1.65177 8.93694H4.10279C4.83691 8.93694 5.40526 8.77413 5.80784 8.44851C6.21042 8.12289 6.41172 7.64631 6.41172 7.01875C6.41172 6.3912 6.21042 5.90869 5.80784 5.57123C5.40526 5.23377 4.83691 5.06504 4.10279 5.06504H1.65177V8.93694ZM11.8287 4.88754C12.1366 4.88754 12.3912 4.7869 12.5924 4.58561C12.7937 4.37247 12.8944 4.11198 12.8944 3.80412C12.8944 3.50811 12.7937 3.25353 12.5924 3.0404C12.3912 2.82727 12.1366 2.7207 11.8287 2.7207C11.5209 2.7207 11.2604 2.82727 11.0472 3.0404C10.8341 3.25353 10.7275 3.50811 10.7275 3.80412C10.7275 4.11198 10.8341 4.36951 11.0472 4.57673C11.2604 4.78394 11.5209 4.88754 11.8287 4.88754ZM11.0472 7.26751V16.148H12.5747V7.26751H11.0472ZM15.4697 16.1479V7.26745H16.9972V8.63505C17.601 7.60491 18.5424 7.08984 19.8212 7.08984C20.8276 7.08984 21.6387 7.41546 22.2544 8.0667C22.8701 8.71793 23.178 9.58822 23.178 10.6776V16.1479H21.6683V10.9085C21.6683 10.1625 21.4789 9.57342 21.1 9.14124C20.7211 8.70905 20.2119 8.49296 19.5725 8.49296C18.8384 8.49296 18.2256 8.78306 17.7343 9.36325C17.2429 9.94344 16.9972 10.7368 16.9972 11.7432V16.1479H15.4697ZM26.9167 19.1762C27.6923 19.7505 28.6662 20.0376 29.8384 20.0376C31.1053 20.0376 32.1503 19.6528 32.9732 18.8831C33.7961 18.1135 34.2076 17.0182 34.2076 15.5974V7.26745H32.6801V8.63505C32.3604 8.17326 31.9283 7.80028 31.3836 7.51611C30.8389 7.23193 30.241 7.08984 29.5897 7.08984C28.3583 7.08984 27.3252 7.52499 26.4904 8.39528C25.6557 9.26556 25.2383 10.3342 25.2383 11.6011C25.2383 12.8799 25.6527 13.9545 26.4816 14.8248C27.3104 15.695 28.3465 16.1302 29.5897 16.1302C30.241 16.1302 30.8389 15.9881 31.3836 15.7039C31.9283 15.4197 32.3604 15.0408 32.6801 14.5672V15.6151C32.6801 16.586 32.4226 17.3409 31.9075 17.8796C31.3925 18.4184 30.7146 18.6878 29.8739 18.6878C28.3701 18.6878 27.4229 18.1135 27.0321 16.9649H25.5402C25.6823 17.8648 26.1411 18.6019 26.9167 19.1762ZM29.8029 14.7093C28.9148 14.7093 28.1925 14.4192 27.636 13.839C27.0795 13.247 26.8012 12.501 26.8012 11.6011C26.8012 10.7012 27.0825 9.95824 27.6449 9.37213C28.2073 8.78602 28.9266 8.49296 29.8029 8.49296C30.6791 8.49296 31.3984 8.78602 31.9608 9.37213C32.5232 9.95824 32.8045 10.7012 32.8045 11.6011C32.8045 12.501 32.5262 13.244 31.9697 13.8301C31.4132 14.4162 30.6909 14.7093 29.8029 14.7093ZM37.3159 16.1479V3.5376H40.9392C42.8692 3.5376 44.4706 4.13555 45.7435 5.33146C47.0164 6.52736 47.6528 8.03113 47.6528 9.84275C47.6528 11.6544 47.0164 13.1581 45.7435 14.354C44.4706 15.5499 42.8692 16.1479 40.9392 16.1479H37.3159ZM38.9677 14.6027H40.9392C42.4429 14.6027 43.6595 14.1557 44.589 13.2617C45.5185 12.3678 45.9833 11.2281 45.9833 9.84275C45.9833 8.45739 45.5185 7.31773 44.589 6.42376C43.6595 5.52979 42.4429 5.0828 40.9392 5.0828H38.9677V14.6027ZM54.1355 3.5376L48.5586 16.1479H50.2637L51.8621 12.4714H57.741L59.375 16.1479H61.0978L55.5031 3.5376H54.1355ZM52.5193 10.9795L54.7927 5.77548L57.0839 10.9795H52.5193Z"
        fill="#FF0083" />
    <rect x="82.5039" y="3.5" width="26" height="15" rx="7.5" fill="#FF0083" />
    <path
        d="M91.0079 15.5L87.5159 6.98H89.5919L91.8599 12.656L94.1159 6.98H96.2159L92.7239 15.5H91.0079ZM102.418 13.712V15.5H96.5383V14.888C96.5383 14.656 96.5623 14.432 96.6103 14.216C96.6583 13.992 96.7143 13.8 96.7783 13.64C96.8423 13.472 96.9423 13.3 97.0783 13.124C97.2143 12.948 97.3303 12.804 97.4263 12.692C97.5223 12.58 97.6663 12.448 97.8583 12.296C98.0503 12.136 98.1983 12.02 98.3023 11.948C98.4063 11.868 98.5703 11.752 98.7943 11.6C99.0183 11.44 99.1743 11.328 99.2623 11.264C100.118 10.656 100.546 10.112 100.546 9.632C100.546 9.336 100.458 9.096 100.282 8.912C100.114 8.72 99.8663 8.624 99.5383 8.624C99.1943 8.624 98.9143 8.728 98.6983 8.936C98.4903 9.144 98.3863 9.396 98.3863 9.692H96.5743C96.5743 8.86 96.8583 8.176 97.4263 7.64C98.0023 7.104 98.7263 6.836 99.5983 6.836C100.366 6.836 101.018 7.072 101.554 7.544C102.09 8.008 102.358 8.66 102.358 9.5C102.358 9.988 102.274 10.424 102.106 10.808C101.938 11.192 101.742 11.5 101.518 11.732C101.294 11.964 100.99 12.224 100.606 12.512C100.59 12.52 100.43 12.624 100.126 12.824C99.8303 13.016 99.6023 13.18 99.4423 13.316C99.2823 13.452 99.1663 13.584 99.0943 13.712H102.418Z"
        fill="white" />
</svg>
    