<svg width="16" height="16" viewBox="0 0 16 16" fill="none" xmlns="http://www.w3.org/2000/svg">
    <path fill-rule="evenodd" clip-rule="evenodd"
        d="M14.4491 9.77656L13.4256 8.90156C13.4741 8.60468 13.4991 8.30156 13.4991 7.99843C13.4991 7.69531 13.4741 7.39218 13.4256 7.09531L14.4491 6.22031C14.6069 6.08593 14.6647 5.86718 14.5944 5.67031L14.5803 5.62968C14.2975 4.84062 13.8788 4.11562 13.335 3.47499L13.3069 3.44218C13.1725 3.28437 12.9553 3.22499 12.7585 3.29374L11.4881 3.74531C11.0194 3.36093 10.496 3.05781 9.93033 2.84531L9.68502 1.51718C9.64752 1.31249 9.48658 1.15312 9.28189 1.11562L9.2397 1.10781C8.42564 0.960931 7.56939 0.960931 6.75533 1.10781L6.71314 1.11562C6.50845 1.15312 6.34752 1.31249 6.31002 1.51718L6.06314 2.85156C5.5022 3.06406 4.98189 3.36562 4.51627 3.74843L3.23658 3.29374C3.04127 3.22499 2.82252 3.28281 2.68814 3.44218L2.66002 3.47499C2.11627 4.11718 1.69752 4.84218 1.4147 5.62968L1.40064 5.67031C1.33033 5.86562 1.38814 6.08437 1.54595 6.22031L2.58189 7.10468C2.53345 7.39843 2.51002 7.69843 2.51002 7.99687C2.51002 8.29687 2.53345 8.59687 2.58189 8.88906L1.54595 9.77343C1.38814 9.90781 1.33033 10.1266 1.40064 10.3234L1.4147 10.3641C1.69752 11.1516 2.11627 11.8781 2.66002 12.5187L2.68814 12.5516C2.82252 12.7094 3.0397 12.7687 3.23658 12.7L4.51627 12.2453C4.98189 12.6281 5.5022 12.9312 6.06314 13.1422L6.31002 14.4766C6.34752 14.6812 6.50845 14.8406 6.71314 14.8781L6.75533 14.8859C7.16314 14.9594 7.58033 14.9969 7.99752 14.9969C8.4147 14.9969 8.83345 14.9594 9.2397 14.8859L9.28189 14.8781C9.48658 14.8406 9.64752 14.6812 9.68502 14.4766L9.93033 13.1484C10.496 12.9359 11.0194 12.6344 11.4881 12.2484L12.7585 12.7C12.9538 12.7687 13.1725 12.7109 13.3069 12.5516L13.335 12.5187C13.8788 11.8766 14.2975 11.1516 14.5803 10.3641L14.5944 10.3234C14.6647 10.1312 14.6069 9.91249 14.4491 9.77656ZM7.99908 5.09374C6.48033 5.09374 5.24908 6.32499 5.24908 7.84374C5.24908 9.36249 6.48033 10.5937 7.99908 10.5937C9.51783 10.5937 10.7491 9.36249 10.7491 7.84374C10.7491 6.32499 9.51783 5.09374 7.99908 5.09374ZM9.23658 9.08124C8.90533 9.41093 8.46627 9.59374 7.99908 9.59374C7.53189 9.59374 7.09283 9.41093 6.76158 9.08124C6.43189 8.74999 6.24908 8.31093 6.24908 7.84374C6.24908 7.37656 6.43189 6.93749 6.76158 6.60624C7.09283 6.27499 7.53189 6.09374 7.99908 6.09374C8.46627 6.09374 8.90533 6.27499 9.23658 6.60624C9.56627 6.93749 9.74908 7.37656 9.74908 7.84374C9.74908 8.31093 9.56627 8.74999 9.23658 9.08124Z"
        fill="currentColor" fill-opacity="0.5" />
</svg>
    