<svg width="20" height="20" viewBox="0 0 20 20" fill="none" xmlns="http://www.w3.org/2000/svg">
    <path fill-rule="evenodd" clip-rule="evenodd" d="M20.0027 0V20H0.00268555V0H20.0027ZM7.85168 4L7.79675 4.00049C7.47239 4.00729 5.7616 4.11125 3.98108 5.51123L3.95471 5.5625C3.72046 6.02437 2.00269 9.55666 2.00269 13.8223C2.00269 13.8223 3.16387 15.9111 6.21741 16C6.21741 16 6.69054 15.3331 7.12061 14.7998C5.3573 14.2665 4.71216 13.1113 4.71216 13.1113L4.74377 13.1318C4.79643 13.1655 4.91492 13.2383 5.09924 13.3335C5.09924 13.3335 5.0992 13.3779 5.14221 13.3779C5.18522 13.4224 5.22823 13.4224 5.27124 13.4668C5.6153 13.689 5.95945 13.8222 6.2605 13.9556C6.8196 14.1778 7.50772 14.3999 8.28186 14.5776C9.31404 14.7554 10.5182 14.8443 11.8514 14.5776C12.4966 14.4443 13.1417 14.2667 13.8298 13.9556C14.3029 13.7778 14.8619 13.5113 15.421 13.1113C15.421 13.1113 14.733 14.2665 12.9266 14.7998C12.9782 14.8709 13.0321 14.944 13.0868 15.0166L13.2516 15.2319C13.5523 15.6207 13.8298 15.9556 13.8298 15.9556C16.8834 15.8667 18.0446 13.7778 18.0016 13.8223C18.0016 9.55666 16.2838 6.02437 16.0496 5.5625L16.0262 5.51709C14.2427 4.11135 12.5318 4.00729 12.2074 4.00049L12.1525 4L11.9805 4.22217C14.3459 4.97772 15.421 6.04443 15.421 6.04443C14.0018 5.2 12.5826 4.84477 11.2924 4.66699C10.3032 4.5781 9.35698 4.5781 8.49683 4.71143C8.45382 4.71143 8.36787 4.75586 8.28186 4.75586C7.76577 4.8003 6.60447 4.97787 5.14221 5.64453C4.62612 5.86675 4.32507 6.04443 4.32507 6.04443C4.32507 6.04443 5.48626 4.93327 7.98071 4.17773L7.85168 4ZM12.5027 9C13.3209 9 14.0027 9.66667 14.0027 10.5C14.0027 11.3333 13.3209 12 12.5027 12C11.6845 12 11.0027 11.3333 11.0027 10.5C11.0027 9.66667 11.6845 9 12.5027 9ZM7.50269 9C8.32087 9 9.00269 9.66667 9.00269 10.5C9.00269 11.3333 8.32087 12 7.50269 12C6.68451 12 6.00269 11.3333 6.00269 10.5C6.00269 9.66667 6.68451 9 7.50269 9Z" fill="white" fill-opacity="0.5"/>
    </svg>
    