<svg width="20" height="20" viewBox="0 0 20 20" fill="none" xmlns="http://www.w3.org/2000/svg">
    <path fill-rule="evenodd" clip-rule="evenodd" d="M20.0027 0H0.00268555V20H20.0027V0ZM12.2071 16.276C12.2061 16.3257 12.2086 16.3753 12.2146 16.4246C12.2146 16.4246 7.76733 16.4388 7.77231 16.4006C7.7773 16.3612 7.77979 16.3339 7.77979 16.3175V14.6558C7.40695 14.6995 7.07453 14.6967 6.78254 14.6476C6.49055 14.5979 6.26146 14.5203 6.09525 14.416C5.92904 14.3111 5.78278 14.1816 5.657 14.027C5.53073 13.873 5.44489 13.732 5.39996 13.6053C5.35285 13.4739 5.30759 13.3416 5.2642 13.2087C5.21876 13.071 5.19082 12.9907 5.18083 12.9689C5.09 12.8034 4.95422 12.652 4.77305 12.5138C4.59136 12.3762 4.45561 12.2658 4.36477 12.1833C4.27443 12.1003 4.26395 12.0205 4.33482 11.9435C4.83843 11.6567 5.40744 12.0205 6.04233 13.0344C6.38473 13.5971 6.98419 13.7626 7.84069 13.5315C7.93577 13.0898 8.14551 12.6877 8.44463 12.3734C7.27618 12.1418 6.40969 11.6676 5.84569 10.9509C5.28166 10.2348 4.99966 9.36345 4.99966 8.33808C4.99966 7.37883 5.27668 6.54686 5.8307 5.84107C5.60909 5.12436 5.63904 4.36942 5.92104 3.57568C6.21355 3.55327 6.54096 3.61664 6.90333 3.76578C7.26619 3.91437 7.52024 4.0411 7.66651 4.14598C7.81225 4.25088 7.94102 4.34703 8.05182 4.4355C8.62632 4.25906 9.27318 4.17057 9.99394 4.17057C10.7137 4.17057 11.366 4.25906 11.9505 4.4355C12.0813 4.3361 12.2275 4.2312 12.3883 4.12084C12.55 4.01105 12.7965 3.89251 13.129 3.76578C13.4614 3.63905 13.7683 3.58659 14.0508 3.60846C14.3224 4.39126 14.3578 5.13529 14.1562 5.84108C14.7207 6.54631 15.0027 7.37883 15.0027 8.3381C15.0027 9.36346 14.7152 10.2375 14.1412 10.9597C13.5672 11.6818 12.7007 12.1527 11.5422 12.3734C11.9755 12.8476 12.1921 13.4212 12.1921 14.0931V16.2263C12.1939 16.2438 12.199 16.2608 12.2071 16.276Z" fill="white" fill-opacity="0.5"/>
    </svg>
    