<svg width="20" height="20" viewBox="0 0 20 20" fill="none" xmlns="http://www.w3.org/2000/svg">
    <path fill-rule="evenodd" clip-rule="evenodd" d="M0.00268555 20V0H20.0027V20H0.00268555ZM15.5473 5.76325L16.6188 4.73647V4.51325H12.9045L10.2572 11.1159L7.24824 4.50879H3.35092V4.73647L4.60538 6.24986C4.73038 6.36147 4.79288 6.52218 4.77502 6.68736V12.6249C4.81074 12.8391 4.74377 13.0579 4.59199 13.2141L3.18127 14.924V15.1516H7.1902V14.924L5.77949 13.2141C5.6277 13.0579 5.55181 12.8391 5.58306 12.6249V7.49093L9.09645 15.1516H9.5027L12.5206 7.49093V13.6025C12.5206 13.7633 12.5206 13.7945 12.4134 13.9016L11.3286 14.9552V15.174H16.5965V14.9463L15.5473 13.9195C15.4536 13.8525 15.409 13.7365 15.4268 13.6204V6.06236C15.409 5.95075 15.4536 5.83468 15.5473 5.76325Z" fill="white" fill-opacity="0.5"/>
    </svg>
    