<svg width="20" height="20" viewBox="0 0 20 20" fill="none" xmlns="http://www.w3.org/2000/svg">
    <path fill-rule="evenodd" clip-rule="evenodd" d="M20.0027 0H0.00268555V20H20.0027V0ZM11.9104 5.60852L12.2204 5.56852L12.2204 5.56852H12.2312V5.55852C12.9723 5.51943 13.6931 5.80836 14.2021 6.34853C14.6566 6.2798 15.0962 6.1344 15.5021 5.91853L15.8121 5.74853C15.6621 6.20853 15.3821 6.61854 15.0021 6.92854C14.9121 7.00854 14.8221 7.07854 14.7221 7.12854C15.2121 7.06946 15.6907 6.93803 16.1421 6.73854C15.9113 7.1073 15.6245 7.43792 15.2921 7.71855L14.8921 8.04855C14.9121 8.58856 14.8721 9.13857 14.7721 9.66857C14.1412 12.4986 12.4812 14.4186 9.86033 15.2386C8.70031 15.5687 7.46947 15.6087 6.28945 15.3586C5.78944 15.2386 5.29943 15.0786 4.81942 14.8786C4.56942 14.7786 4.33941 14.6586 4.10941 14.5186L3.8894 14.3886C4.15411 14.4286 4.42246 14.4386 4.68942 14.4186C4.805 14.4009 4.91663 14.393 5.02518 14.3853C5.16082 14.3757 5.29167 14.3664 5.41943 14.3386C5.94389 14.2305 6.4494 14.0451 6.91946 13.7886C7.16337 13.6705 7.39177 13.5227 7.59947 13.3486C7.34946 13.3486 7.09946 13.3086 6.85945 13.2186C6.10861 12.9586 5.5186 12.3686 5.26859 11.6086C5.5186 11.6386 6.22861 11.6986 6.38861 11.5586C6.08861 11.5186 5.8086 11.4086 5.5686 11.2286C4.81007 10.7783 4.35761 9.95012 4.38858 9.06857L4.65858 9.16857C4.82909 9.23824 5.00687 9.28855 5.18859 9.31857C5.29735 9.35817 5.41459 9.36852 5.5286 9.34857C5.46992 9.28538 5.39698 9.23033 5.32265 9.17424C5.2323 9.10607 5.13991 9.03635 5.06859 8.94856C4.52743 8.31819 4.3194 7.4675 4.50858 6.65853C4.57086 6.43136 4.66158 6.21296 4.77858 6.00853C4.84727 6.10503 4.92423 6.19537 5.00859 6.27853C5.22723 6.54902 5.47575 6.79391 5.74944 7.00854C6.63922 7.73764 7.68758 8.24796 8.81031 8.49855C9.17032 8.59855 9.55032 8.64856 9.93033 8.64856C9.83033 8.26855 9.83033 7.85855 9.93033 7.46854C10.114 6.71447 10.6392 6.08939 11.3504 5.77852C11.5304 5.70852 11.7204 5.64852 11.9104 5.60852Z" fill="white" fill-opacity="0.5"/>
    </svg>
    