<svg width="257" height="256" viewBox="0 0 257 256" fill="none" xmlns="http://www.w3.org/2000/svg">
<rect x="0.585754" width="256" height="256" fill="black"/>
<path fill-rule="evenodd" clip-rule="evenodd" d="M195.903 146.481L195.902 156.942L200.781 156.942L200.781 166.75L208.586 166.75V179.5L203.708 179.5L203.708 185.712H191.025V188H178.342L178.342 182.442L166.309 182.442V169.692L172.163 169.692L172.163 163.154L176.716 163.154L176.716 154H183.22L183.22 146.481H195.903ZM141.269 69V81.75L137.366 81.7496L137.366 94.8269L136.065 94.8267V98.7497L154.927 98.75L154.927 112.481L170.212 112.481L170.211 124.904L183.22 124.904V146.481H161.756L161.756 134.058H150.049L150.049 140.596L136.065 140.596L136.065 147.462L122.732 147.461L122.732 153.673L101.919 153.673L101.919 160.538L82.0816 160.538L82.0817 163.808H60.6183L60.6178 159.231L48.5858 159.231V137.654L56.3904 137.654L56.3906 121.635L68.0978 121.634L68.0979 110.846L82.0816 110.846L82.0817 104.308L96.0653 104.307L96.0654 97.4423L107.773 97.4422L107.773 84.0385L116.553 84.0384L116.553 76.5192L128.585 76.519L128.586 69H141.269Z" fill="white"/>
<path fill-rule="evenodd" clip-rule="evenodd" d="M116.441 123.4L116.441 134.194L132.374 134.194V155.782H110.913L110.913 144.988L94.98 144.988V123.4H116.441ZM70.9176 106.228H85.225V120.62H70.9176V106.228ZM189.278 173.608H203.586V188H189.278V173.608ZM149.933 92L149.933 102.794L159.363 102.794V117.186H145.056L145.056 113.587L128.472 113.588V92H149.933ZM57.5858 144.988H65.0646V152.511H57.5858V144.988Z" fill="#FF0083"/>
</svg>
